<svg width="573" height="65" viewBox="0 0 573 65" fill="none" xmlns="http://www.w3.org/2000/svg">
<g clip-path="url(#clip0)">
<path d="M23.3584 5.13672L23.5781 9.79492H23.0215C22.9141 8.97461 22.7676 8.38867 22.582 8.03711C22.2793 7.4707 21.874 7.05566 21.3662 6.79199C20.8682 6.51855 20.209 6.38184 19.3887 6.38184H16.5908V21.5576C16.5908 22.7783 16.7227 23.54 16.9863 23.8428C17.3574 24.2529 17.9287 24.458 18.7002 24.458H19.3887V25H10.9658V24.458H11.6689C12.5088 24.458 13.1045 24.2041 13.4561 23.6963C13.6709 23.3838 13.7783 22.6709 13.7783 21.5576V6.38184H11.3906C10.4629 6.38184 9.80371 6.4502 9.41309 6.58691C8.90527 6.77246 8.4707 7.12891 8.10938 7.65625C7.74805 8.18359 7.5332 8.89648 7.46484 9.79492H6.9082L7.14258 5.13672H23.3584ZM32.6068 14.3506H41.8354V8.66699C41.8354 7.65137 41.7719 6.98242 41.6449 6.66016C41.5473 6.41602 41.3422 6.20605 41.0297 6.03027C40.6098 5.7959 40.1654 5.67871 39.6967 5.67871H38.9936V5.13672H47.4896V5.67871H46.7865C46.3178 5.67871 45.8734 5.79102 45.4535 6.01562C45.141 6.17188 44.9262 6.41113 44.809 6.7334C44.7016 7.0459 44.6479 7.69043 44.6479 8.66699V21.4844C44.6479 22.4902 44.7113 23.1543 44.8383 23.4766C44.9359 23.7207 45.1361 23.9307 45.4389 24.1064C45.8686 24.3408 46.3178 24.458 46.7865 24.458H47.4896V25H38.9936V24.458H39.6967C40.5072 24.458 41.098 24.2188 41.4691 23.7402C41.7133 23.4277 41.8354 22.6758 41.8354 21.4844V15.4346H32.6068V21.4844C32.6068 22.4902 32.6703 23.1543 32.7973 23.4766C32.8949 23.7207 33.1 23.9307 33.4125 24.1064C33.8324 24.3408 34.2768 24.458 34.7455 24.458H35.4633V25H26.9525V24.458H27.6557C28.476 24.458 29.0717 24.2188 29.4428 23.7402C29.6771 23.4277 29.7943 22.6758 29.7943 21.4844V8.66699C29.7943 7.65137 29.7309 6.98242 29.6039 6.66016C29.5063 6.41602 29.3061 6.20605 29.0033 6.03027C28.5736 5.7959 28.1244 5.67871 27.6557 5.67871H26.9525V5.13672H35.4633V5.67871H34.7455C34.2768 5.67871 33.8324 5.79102 33.4125 6.01562C33.1098 6.17188 32.8998 6.41113 32.7826 6.7334C32.6654 7.0459 32.6068 7.69043 32.6068 8.66699V14.3506ZM56.4891 6.2207V14.0723H60.8543C61.9871 14.0723 62.7439 13.9014 63.1248 13.5596C63.6326 13.1104 63.9158 12.3193 63.9744 11.1865H64.5164V18.1006H63.9744C63.8377 17.1338 63.701 16.5137 63.5643 16.2402C63.3885 15.8984 63.1004 15.6299 62.7 15.4346C62.2996 15.2393 61.6844 15.1416 60.8543 15.1416H56.4891V21.6895C56.4891 22.5684 56.5281 23.1055 56.6063 23.3008C56.6844 23.4863 56.8211 23.6377 57.0164 23.7549C57.2117 23.8623 57.5828 23.916 58.1297 23.916H61.4988C62.6219 23.916 63.4373 23.8379 63.9451 23.6816C64.4529 23.5254 64.9412 23.2178 65.41 22.7588C66.0154 22.1533 66.6355 21.2402 67.2703 20.0195H67.8563L66.1424 25H50.8348V24.458H51.5379C52.0066 24.458 52.451 24.3457 52.8709 24.1211C53.1834 23.9648 53.3934 23.7305 53.5008 23.418C53.618 23.1055 53.6766 22.4658 53.6766 21.499V8.59375C53.6766 7.33398 53.5496 6.55762 53.2957 6.26465C52.9441 5.87402 52.3582 5.67871 51.5379 5.67871H50.8348V5.13672H66.1424L66.3621 9.4873H65.7908C65.5857 8.44238 65.3563 7.72461 65.1023 7.33398C64.8582 6.94336 64.492 6.64551 64.0037 6.44043C63.6131 6.29395 62.9246 6.2207 61.9383 6.2207H56.4891ZM80.7721 25V24.458H81.5191C82.359 24.458 82.9547 24.1895 83.3063 23.6523C83.5211 23.3301 83.6285 22.6074 83.6285 21.4844V8.65234C83.6285 7.41211 83.4918 6.63574 83.2184 6.32324C82.8375 5.89355 82.2711 5.67871 81.5191 5.67871H80.7721V5.13672H88.858C91.8268 5.13672 94.0826 5.47363 95.6256 6.14746C97.1783 6.82129 98.4234 7.94434 99.3609 9.5166C100.308 11.0889 100.782 12.9053 100.782 14.9658C100.782 17.7295 99.942 20.0391 98.2623 21.8945C96.3775 23.9648 93.5064 25 89.649 25H80.7721ZM86.441 23.5645C87.6813 23.8379 88.7213 23.9746 89.5611 23.9746C91.8268 23.9746 93.7066 23.1787 95.2008 21.5869C96.6949 19.9951 97.442 17.8369 97.442 15.1123C97.442 12.3682 96.6949 10.2051 95.2008 8.62305C93.7066 7.04102 91.7877 6.25 89.4439 6.25C88.565 6.25 87.5641 6.3916 86.441 6.6748V23.5645ZM124.312 25H119.01L112.286 15.7129C111.788 15.7324 111.383 15.7422 111.07 15.7422C110.943 15.7422 110.807 15.7422 110.66 15.7422C110.514 15.7324 110.362 15.7227 110.206 15.7129V21.4844C110.206 22.7344 110.343 23.5107 110.616 23.8135C110.987 24.2432 111.544 24.458 112.286 24.458H113.062V25H104.552V24.458H105.299C106.139 24.458 106.739 24.1846 107.101 23.6377C107.306 23.335 107.408 22.6172 107.408 21.4844V8.65234C107.408 7.40234 107.271 6.62598 106.998 6.32324C106.617 5.89355 106.051 5.67871 105.299 5.67871H104.552V5.13672H111.788C113.897 5.13672 115.45 5.29297 116.446 5.60547C117.452 5.9082 118.302 6.47461 118.995 7.30469C119.698 8.125 120.05 9.10645 120.05 10.249C120.05 11.4697 119.649 12.5293 118.849 13.4277C118.058 14.3262 116.827 14.9609 115.157 15.332L119.259 21.0303C120.196 22.3389 121.002 23.208 121.676 23.6377C122.35 24.0674 123.229 24.3408 124.312 24.458V25ZM110.206 14.79C110.392 14.79 110.553 14.7949 110.689 14.8047C110.826 14.8047 110.938 14.8047 111.026 14.8047C112.921 14.8047 114.347 14.3945 115.304 13.5742C116.271 12.7539 116.754 11.709 116.754 10.4395C116.754 9.19922 116.363 8.19336 115.582 7.42188C114.811 6.64063 113.785 6.25 112.506 6.25C111.939 6.25 111.173 6.34277 110.206 6.52832V14.79ZM139.874 18.3496H132.184L130.836 21.4844C130.504 22.2559 130.338 22.832 130.338 23.2129C130.338 23.5156 130.48 23.7842 130.763 24.0186C131.056 24.2432 131.681 24.3896 132.638 24.458V25H126.383V24.458C127.213 24.3115 127.75 24.1211 127.995 23.8867C128.493 23.418 129.044 22.4658 129.65 21.0303L136.637 4.68262H137.15L144.064 21.2061C144.621 22.5342 145.123 23.3984 145.573 23.7988C146.032 24.1895 146.666 24.4092 147.477 24.458V25H139.64V24.458C140.431 24.4189 140.963 24.2871 141.237 24.0625C141.52 23.8379 141.662 23.5645 141.662 23.2422C141.662 22.8125 141.466 22.1338 141.076 21.2061L139.874 18.3496ZM139.464 17.2656L136.095 9.23828L132.638 17.2656H139.464ZM175.607 5.13672V5.67871C175.09 5.67871 174.67 5.77148 174.347 5.95703C174.025 6.14258 173.718 6.48926 173.425 6.99707C173.229 7.33887 172.922 8.1543 172.502 9.44336L166.965 25.4541H166.379L161.852 12.7539L157.355 25.4541H156.828L150.925 8.95996C150.485 7.72949 150.207 7.00195 150.09 6.77734C149.894 6.40625 149.626 6.13281 149.284 5.95703C148.952 5.77148 148.498 5.67871 147.922 5.67871V5.13672H155.275V5.67871H154.924C154.406 5.67871 154.011 5.7959 153.737 6.03027C153.464 6.26465 153.327 6.54785 153.327 6.87988C153.327 7.22168 153.542 8.00781 153.971 9.23828L157.883 20.3857L161.179 10.9082L160.593 9.23828L160.124 7.90527C159.919 7.41699 159.689 6.9873 159.435 6.61621C159.308 6.43066 159.152 6.27441 158.967 6.14746C158.722 5.97168 158.478 5.84473 158.234 5.7666C158.049 5.70801 157.756 5.67871 157.355 5.67871V5.13672H165.09V5.67871H164.562C164.015 5.67871 163.615 5.7959 163.361 6.03027C163.107 6.26465 162.98 6.58203 162.98 6.98242C162.98 7.48047 163.2 8.34961 163.639 9.58984L167.448 20.3857L171.227 9.44336C171.657 8.23242 171.872 7.39258 171.872 6.92383C171.872 6.69922 171.799 6.48926 171.652 6.29395C171.515 6.09863 171.34 5.96191 171.125 5.88379C170.754 5.74707 170.27 5.67871 169.675 5.67871V5.13672H175.607ZM187.214 24.458V25H178.703V24.458H179.406C180.227 24.458 180.822 24.2188 181.194 23.7402C181.428 23.4277 181.545 22.6758 181.545 21.4844V8.65234C181.545 7.64648 181.482 6.98242 181.355 6.66016C181.257 6.41602 181.057 6.20605 180.754 6.03027C180.324 5.7959 179.875 5.67871 179.406 5.67871H178.703V5.13672H187.214V5.67871H186.496C185.686 5.67871 185.095 5.91797 184.724 6.39648C184.48 6.70898 184.358 7.46094 184.358 8.65234V21.4844C184.358 22.4902 184.421 23.1543 184.548 23.4766C184.646 23.7207 184.851 23.9307 185.163 24.1064C185.583 24.3408 186.028 24.458 186.496 24.458H187.214ZM189.651 5.13672H195.042L207.185 20.0342V8.5791C207.185 7.3584 207.048 6.59668 206.775 6.29395C206.414 5.88379 205.842 5.67871 205.061 5.67871H204.373V5.13672H211.287V5.67871H210.584C209.744 5.67871 209.148 5.93262 208.796 6.44043C208.582 6.75293 208.474 7.46582 208.474 8.5791V25.3223H207.947L194.851 9.32617V21.5576C194.851 22.7783 194.983 23.54 195.247 23.8428C195.618 24.2529 196.189 24.458 196.961 24.458H197.664V25H190.75V24.458H191.438C192.288 24.458 192.888 24.2041 193.24 23.6963C193.455 23.3838 193.562 22.6709 193.562 21.5576V7.74414C192.986 7.07031 192.546 6.62598 192.244 6.41113C191.951 6.19629 191.516 5.99609 190.94 5.81055C190.657 5.72266 190.227 5.67871 189.651 5.67871V5.13672ZM232.239 4.68262L232.752 10.9521H232.239C231.722 9.38965 231.053 8.21289 230.232 7.42188C229.051 6.2793 227.532 5.70801 225.677 5.70801C223.147 5.70801 221.224 6.70898 219.905 8.71094C218.802 10.4004 218.25 12.4121 218.25 14.7461C218.25 16.6406 218.616 18.3691 219.349 19.9316C220.081 21.4941 221.038 22.6416 222.22 23.374C223.411 24.0967 224.632 24.458 225.882 24.458C226.614 24.458 227.322 24.3652 228.006 24.1797C228.689 23.9941 229.349 23.7207 229.983 23.3594V17.6172C229.983 16.6211 229.905 15.9717 229.749 15.6689C229.603 15.3564 229.368 15.1221 229.046 14.9658C228.733 14.7998 228.177 14.7168 227.376 14.7168V14.1602H235.066V14.7168H234.7C233.938 14.7168 233.416 14.9707 233.133 15.4785C232.938 15.8398 232.84 16.5527 232.84 17.6172V23.6963C231.717 24.3018 230.608 24.7461 229.515 25.0293C228.421 25.3125 227.205 25.4541 225.867 25.4541C222.029 25.4541 219.114 24.2236 217.122 21.7627C215.628 19.917 214.881 17.7881 214.881 15.376C214.881 13.6279 215.301 11.9531 216.141 10.3516C217.137 8.44727 218.504 6.98242 220.242 5.95703C221.697 5.10742 223.416 4.68262 225.398 4.68262C226.121 4.68262 226.775 4.74121 227.361 4.8584C227.957 4.97559 228.797 5.23438 229.881 5.63477C230.428 5.83984 230.794 5.94238 230.979 5.94238C231.165 5.94238 231.321 5.85937 231.448 5.69336C231.585 5.51758 231.668 5.18066 231.697 4.68262H232.239ZM251.361 4.68262V11.5527H250.819C250.643 10.2344 250.326 9.18457 249.867 8.40332C249.417 7.62207 248.773 7.00195 247.933 6.54297C247.093 6.08398 246.224 5.85449 245.326 5.85449C244.31 5.85449 243.47 6.16699 242.806 6.79199C242.142 7.40723 241.81 8.11035 241.81 8.90137C241.81 9.50684 242.02 10.0586 242.44 10.5566C243.045 11.2891 244.486 12.2656 246.761 13.4863C248.617 14.4824 249.881 15.249 250.555 15.7861C251.239 16.3135 251.761 16.9385 252.122 17.6611C252.494 18.3838 252.679 19.1406 252.679 19.9316C252.679 21.4355 252.093 22.7344 250.921 23.8281C249.759 24.9121 248.26 25.4541 246.424 25.4541C245.848 25.4541 245.306 25.4102 244.798 25.3223C244.496 25.2734 243.866 25.0977 242.909 24.7949C241.961 24.4824 241.361 24.3262 241.107 24.3262C240.863 24.3262 240.667 24.3994 240.521 24.5459C240.384 24.6924 240.282 24.9951 240.213 25.4541H239.671V18.6426H240.213C240.467 20.0684 240.809 21.1377 241.239 21.8506C241.668 22.5537 242.323 23.1396 243.202 23.6084C244.09 24.0771 245.062 24.3115 246.117 24.3115C247.337 24.3115 248.299 23.9893 249.002 23.3447C249.715 22.7002 250.072 21.9385 250.072 21.0596C250.072 20.5713 249.935 20.0781 249.662 19.5801C249.398 19.082 248.983 18.6182 248.416 18.1885C248.036 17.8955 246.996 17.2754 245.296 16.3281C243.597 15.3711 242.386 14.6094 241.663 14.043C240.951 13.4766 240.409 12.8516 240.038 12.168C239.666 11.4844 239.481 10.7324 239.481 9.91211C239.481 8.48633 240.028 7.26074 241.121 6.23535C242.215 5.2002 243.607 4.68262 245.296 4.68262C246.351 4.68262 247.469 4.94141 248.651 5.45898C249.198 5.70313 249.583 5.8252 249.808 5.8252C250.062 5.8252 250.267 5.75195 250.423 5.60547C250.589 5.44922 250.721 5.1416 250.819 4.68262H251.361ZM276.977 4.68262C279.555 4.68262 281.786 5.66406 283.671 7.62695C285.566 9.58008 286.513 12.0215 286.513 14.9512C286.513 17.9688 285.561 20.4736 283.656 22.4658C281.752 24.458 279.447 25.4541 276.742 25.4541C274.008 25.4541 271.708 24.4824 269.843 22.5391C267.987 20.5957 267.06 18.0811 267.06 14.9951C267.06 11.8408 268.134 9.26758 270.282 7.27539C272.148 5.54688 274.379 4.68262 276.977 4.68262ZM276.698 5.75195C274.921 5.75195 273.495 6.41113 272.421 7.72949C271.083 9.37012 270.414 11.7725 270.414 14.9365C270.414 18.1787 271.108 20.6738 272.494 22.4219C273.559 23.75 274.965 24.4141 276.713 24.4141C278.578 24.4141 280.116 23.6865 281.327 22.2314C282.548 20.7764 283.158 18.4814 283.158 15.3467C283.158 11.9482 282.489 9.41406 281.152 7.74414C280.077 6.41602 278.593 5.75195 276.698 5.75195ZM295.922 6.2207V14.0283H299.541C300.371 14.0283 300.976 13.8477 301.357 13.4863C301.748 13.1152 302.006 12.3877 302.133 11.3037H302.675V18.0273H302.133C302.124 17.2559 302.021 16.6895 301.826 16.3281C301.64 15.9668 301.377 15.6982 301.035 15.5225C300.703 15.3369 300.205 15.2441 299.541 15.2441H295.922V21.4844C295.922 22.4902 295.986 23.1543 296.113 23.4766C296.211 23.7207 296.416 23.9307 296.728 24.1064C297.158 24.3408 297.607 24.458 298.076 24.458H298.794V25H290.268V24.458H290.971C291.792 24.458 292.387 24.2188 292.758 23.7402C292.993 23.4277 293.11 22.6758 293.11 21.4844V8.65234C293.11 7.64648 293.046 6.98242 292.92 6.66016C292.822 6.41602 292.622 6.20605 292.319 6.03027C291.899 5.7959 291.45 5.67871 290.971 5.67871H290.268V5.13672H305.048L305.239 9.50195H304.726C304.472 8.57422 304.174 7.89551 303.833 7.46582C303.501 7.02637 303.086 6.70898 302.587 6.51367C302.099 6.31836 301.337 6.2207 300.302 6.2207H295.922ZM334.986 5.13672L335.205 9.79492H334.649C334.541 8.97461 334.395 8.38867 334.209 8.03711C333.907 7.4707 333.501 7.05566 332.994 6.79199C332.496 6.51855 331.836 6.38184 331.016 6.38184H328.218V21.5576C328.218 22.7783 328.35 23.54 328.614 23.8428C328.985 24.2529 329.556 24.458 330.328 24.458H331.016V25H322.593V24.458H323.296C324.136 24.458 324.732 24.2041 325.083 23.6963C325.298 23.3838 325.406 22.6709 325.406 21.5576V6.38184H323.018C322.09 6.38184 321.431 6.4502 321.04 6.58691C320.533 6.77246 320.098 7.12891 319.737 7.65625C319.375 8.18359 319.161 8.89648 319.092 9.79492H318.536L318.77 5.13672H334.986ZM344.234 14.3506H353.463V8.66699C353.463 7.65137 353.399 6.98242 353.272 6.66016C353.175 6.41602 352.97 6.20605 352.657 6.03027C352.237 5.7959 351.793 5.67871 351.324 5.67871H350.621V5.13672H359.117V5.67871H358.414C357.945 5.67871 357.501 5.79102 357.081 6.01562C356.768 6.17188 356.554 6.41113 356.436 6.7334C356.329 7.0459 356.275 7.69043 356.275 8.66699V21.4844C356.275 22.4902 356.339 23.1543 356.466 23.4766C356.563 23.7207 356.763 23.9307 357.066 24.1064C357.496 24.3408 357.945 24.458 358.414 24.458H359.117V25H350.621V24.458H351.324C352.135 24.458 352.725 24.2188 353.096 23.7402C353.341 23.4277 353.463 22.6758 353.463 21.4844V15.4346H344.234V21.4844C344.234 22.4902 344.298 23.1543 344.425 23.4766C344.522 23.7207 344.727 23.9307 345.04 24.1064C345.46 24.3408 345.904 24.458 346.373 24.458H347.091V25H338.58V24.458H339.283C340.103 24.458 340.699 24.2188 341.07 23.7402C341.305 23.4277 341.422 22.6758 341.422 21.4844V8.66699C341.422 7.65137 341.358 6.98242 341.231 6.66016C341.134 6.41602 340.933 6.20605 340.631 6.03027C340.201 5.7959 339.752 5.67871 339.283 5.67871H338.58V5.13672H347.091V5.67871H346.373C345.904 5.67871 345.46 5.79102 345.04 6.01562C344.737 6.17188 344.527 6.41113 344.41 6.7334C344.293 7.0459 344.234 7.69043 344.234 8.66699V14.3506ZM368.116 6.2207V14.0723H372.482C373.614 14.0723 374.371 13.9014 374.752 13.5596C375.26 13.1104 375.543 12.3193 375.602 11.1865H376.144V18.1006H375.602C375.465 17.1338 375.328 16.5137 375.192 16.2402C375.016 15.8984 374.728 15.6299 374.327 15.4346C373.927 15.2393 373.312 15.1416 372.482 15.1416H368.116V21.6895C368.116 22.5684 368.155 23.1055 368.234 23.3008C368.312 23.4863 368.448 23.6377 368.644 23.7549C368.839 23.8623 369.21 23.916 369.757 23.916H373.126C374.249 23.916 375.065 23.8379 375.572 23.6816C376.08 23.5254 376.569 23.2178 377.037 22.7588C377.643 22.1533 378.263 21.2402 378.898 20.0195H379.484L377.77 25H362.462V24.458H363.165C363.634 24.458 364.078 24.3457 364.498 24.1211C364.811 23.9648 365.021 23.7305 365.128 23.418C365.245 23.1055 365.304 22.4658 365.304 21.499V8.59375C365.304 7.33398 365.177 6.55762 364.923 6.26465C364.571 5.87402 363.986 5.67871 363.165 5.67871H362.462V5.13672H377.77L377.989 9.4873H377.418C377.213 8.44238 376.984 7.72461 376.73 7.33398C376.486 6.94336 376.119 6.64551 375.631 6.44043C375.24 6.29395 374.552 6.2207 373.566 6.2207H368.116ZM12.1377 40.2207V48.0283H15.7559C16.5859 48.0283 17.1914 47.8477 17.5723 47.4863C17.9629 47.1152 18.2217 46.3877 18.3486 45.3037H18.8906V52.0273H18.3486C18.3389 51.2559 18.2363 50.6895 18.041 50.3281C17.8555 49.9668 17.5918 49.6982 17.25 49.5225C16.918 49.3369 16.4199 49.2441 15.7559 49.2441H12.1377V55.4844C12.1377 56.4902 12.2012 57.1543 12.3281 57.4766C12.4258 57.7207 12.6309 57.9307 12.9434 58.1064C13.373 58.3408 13.8223 58.458 14.291 58.458H15.0088V59H6.4834V58.458H7.18652C8.00684 58.458 8.60254 58.2188 8.97363 57.7402C9.20801 57.4277 9.3252 56.6758 9.3252 55.4844V42.6523C9.3252 41.6465 9.26172 40.9824 9.13477 40.6602C9.03711 40.416 8.83691 40.2061 8.53418 40.0303C8.11426 39.7959 7.66504 39.6787 7.18652 39.6787H6.4834V39.1367H21.2637L21.4541 43.502H20.9414C20.6875 42.5742 20.3896 41.8955 20.0479 41.4658C19.7158 41.0264 19.3008 40.709 18.8027 40.5137C18.3145 40.3184 17.5527 40.2207 16.5176 40.2207H12.1377ZM41.9965 53.5068L42.4799 53.6094L40.7807 59H25.3998V58.458H26.1469C26.9867 58.458 27.5873 58.1846 27.9486 57.6377C28.1537 57.3252 28.2563 56.6025 28.2563 55.4697V42.6523C28.2563 41.4121 28.1195 40.6357 27.8461 40.3232C27.4652 39.8936 26.8988 39.6787 26.1469 39.6787H25.3998V39.1367H34.3939V39.6787C33.3393 39.6689 32.5971 39.7666 32.1674 39.9717C31.7475 40.1768 31.4594 40.4355 31.3031 40.748C31.1469 41.0605 31.0688 41.8076 31.0688 42.9893V55.4697C31.0688 56.2803 31.1469 56.8369 31.3031 57.1396C31.4203 57.3447 31.601 57.4961 31.8451 57.5938C32.0893 57.6914 32.851 57.7402 34.1303 57.7402H35.5805C37.1039 57.7402 38.1732 57.6279 38.7885 57.4033C39.4037 57.1787 39.9652 56.7832 40.473 56.2168C40.9809 55.6406 41.4887 54.7373 41.9965 53.5068ZM56.2107 38.6826C58.7889 38.6826 61.0203 39.6641 62.9051 41.627C64.7996 43.5801 65.7469 46.0215 65.7469 48.9512C65.7469 51.9688 64.7947 54.4736 62.8904 56.4658C60.9861 58.458 58.6814 59.4541 55.9764 59.4541C53.242 59.4541 50.9422 58.4824 49.077 56.5391C47.2215 54.5957 46.2938 52.0811 46.2938 48.9951C46.2938 45.8408 47.368 43.2676 49.5164 41.2754C51.3816 39.5469 53.6131 38.6826 56.2107 38.6826ZM55.9324 39.752C54.1551 39.752 52.7293 40.4111 51.6551 41.7295C50.3172 43.3701 49.6482 45.7725 49.6482 48.9365C49.6482 52.1787 50.3416 54.6738 51.7283 56.4219C52.7928 57.75 54.199 58.4141 55.9471 58.4141C57.8123 58.4141 59.3504 57.6865 60.5613 56.2314C61.782 54.7764 62.3924 52.4814 62.3924 49.3467C62.3924 45.9482 61.7234 43.4141 60.3855 41.7441C59.3113 40.416 57.827 39.752 55.9324 39.752ZM89.2922 59H83.9895L77.2658 49.7129C76.7678 49.7324 76.3625 49.7422 76.05 49.7422C75.923 49.7422 75.7863 49.7422 75.6398 49.7422C75.4934 49.7324 75.342 49.7227 75.1857 49.7129V55.4844C75.1857 56.7344 75.3225 57.5107 75.5959 57.8135C75.967 58.2432 76.5236 58.458 77.2658 58.458H78.0422V59H69.5314V58.458H70.2785C71.1184 58.458 71.7189 58.1846 72.0803 57.6377C72.2854 57.335 72.3879 56.6172 72.3879 55.4844V42.6523C72.3879 41.4023 72.2512 40.626 71.9777 40.3232C71.5969 39.8936 71.0305 39.6787 70.2785 39.6787H69.5314V39.1367H76.7678C78.8771 39.1367 80.4299 39.293 81.426 39.6055C82.4318 39.9082 83.2814 40.4746 83.9748 41.3047C84.6779 42.125 85.0295 43.1064 85.0295 44.249C85.0295 45.4697 84.6291 46.5293 83.8283 47.4277C83.0373 48.3262 81.8068 48.9609 80.1369 49.332L84.2385 55.0303C85.176 56.3389 85.9816 57.208 86.6555 57.6377C87.3293 58.0674 88.2082 58.3408 89.2922 58.458V59ZM75.1857 48.79C75.3713 48.79 75.5324 48.7949 75.6691 48.8047C75.8059 48.8047 75.9182 48.8047 76.0061 48.8047C77.9006 48.8047 79.3264 48.3945 80.2834 47.5742C81.2502 46.7539 81.7336 45.709 81.7336 44.4395C81.7336 43.1992 81.343 42.1934 80.5617 41.4219C79.7902 40.6406 78.7648 40.25 77.4855 40.25C76.9191 40.25 76.1525 40.3428 75.1857 40.5283V48.79ZM97.398 40.2207V48.0723H101.763C102.896 48.0723 103.653 47.9014 104.034 47.5596C104.542 47.1104 104.825 46.3193 104.883 45.1865H105.425V52.1006H104.883C104.747 51.1338 104.61 50.5137 104.473 50.2402C104.297 49.8984 104.009 49.6299 103.609 49.4346C103.209 49.2393 102.593 49.1416 101.763 49.1416H97.398V55.6895C97.398 56.5684 97.4371 57.1055 97.5152 57.3008C97.5934 57.4863 97.7301 57.6377 97.9254 57.7549C98.1207 57.8623 98.4918 57.916 99.0387 57.916H102.408C103.531 57.916 104.346 57.8379 104.854 57.6816C105.362 57.5254 105.85 57.2178 106.319 56.7588C106.924 56.1533 107.545 55.2402 108.179 54.0195H108.765L107.051 59H91.7438V58.458H92.4469C92.9156 58.458 93.36 58.3457 93.7799 58.1211C94.0924 57.9648 94.3023 57.7305 94.4098 57.418C94.527 57.1055 94.5855 56.4658 94.5855 55.499V42.5938C94.5855 41.334 94.4586 40.5576 94.2047 40.2646C93.8531 39.874 93.2672 39.6787 92.4469 39.6787H91.7438V39.1367H107.051L107.271 43.4873H106.7C106.495 42.4424 106.265 41.7246 106.011 41.334C105.767 40.9434 105.401 40.6455 104.913 40.4404C104.522 40.2939 103.834 40.2207 102.847 40.2207H97.398ZM111.173 39.1367H116.563L128.707 54.0342V42.5791C128.707 41.3584 128.57 40.5967 128.297 40.2939C127.936 39.8838 127.364 39.6787 126.583 39.6787H125.895V39.1367H132.809V39.6787H132.105C131.266 39.6787 130.67 39.9326 130.318 40.4404C130.104 40.7529 129.996 41.4658 129.996 42.5791V59.3223H129.469L116.373 43.3262V55.5576C116.373 56.7783 116.505 57.54 116.769 57.8428C117.14 58.2529 117.711 58.458 118.482 58.458H119.186V59H112.271V58.458H112.96C113.81 58.458 114.41 58.2041 114.762 57.6963C114.977 57.3838 115.084 56.6709 115.084 55.5576V41.7441C114.508 41.0703 114.068 40.626 113.766 40.4111C113.473 40.1963 113.038 39.9961 112.462 39.8105C112.179 39.7227 111.749 39.6787 111.173 39.6787V39.1367ZM152.706 39.1367L152.926 43.7949H152.37C152.262 42.9746 152.116 42.3887 151.93 42.0371C151.627 41.4707 151.222 41.0557 150.714 40.792C150.216 40.5186 149.557 40.3818 148.737 40.3818H145.939V55.5576C145.939 56.7783 146.071 57.54 146.334 57.8428C146.705 58.2529 147.277 58.458 148.048 58.458H148.737V59H140.314V58.458H141.017C141.857 58.458 142.453 58.2041 142.804 57.6963C143.019 57.3838 143.126 56.6709 143.126 55.5576V40.3818H140.739C139.811 40.3818 139.152 40.4502 138.761 40.5869C138.253 40.7725 137.819 41.1289 137.457 41.6562C137.096 42.1836 136.881 42.8965 136.813 43.7949H136.256L136.491 39.1367H152.706ZM165.046 58.458V59H156.535V58.458H157.238C158.058 58.458 158.654 58.2188 159.025 57.7402C159.26 57.4277 159.377 56.6758 159.377 55.4844V42.6523C159.377 41.6465 159.313 40.9824 159.186 40.6602C159.089 40.416 158.888 40.2061 158.586 40.0303C158.156 39.7959 157.707 39.6787 157.238 39.6787H156.535V39.1367H165.046V39.6787H164.328C163.517 39.6787 162.927 39.918 162.555 40.3965C162.311 40.709 162.189 41.4609 162.189 42.6523V55.4844C162.189 56.4902 162.253 57.1543 162.38 57.4766C162.477 57.7207 162.682 57.9307 162.995 58.1064C163.415 58.3408 163.859 58.458 164.328 58.458H165.046ZM167.483 39.1367H172.873L185.017 54.0342V42.5791C185.017 41.3584 184.88 40.5967 184.607 40.2939C184.245 39.8838 183.674 39.6787 182.893 39.6787H182.204V39.1367H189.118V39.6787H188.415C187.575 39.6787 186.98 39.9326 186.628 40.4404C186.413 40.7529 186.306 41.4658 186.306 42.5791V59.3223H185.779L172.683 43.3262V55.5576C172.683 56.7783 172.815 57.54 173.078 57.8428C173.449 58.2529 174.021 58.458 174.792 58.458H175.495V59H168.581V58.458H169.27C170.119 58.458 170.72 58.2041 171.071 57.6963C171.286 57.3838 171.394 56.6709 171.394 55.5576V41.7441C170.818 41.0703 170.378 40.626 170.075 40.4111C169.782 40.1963 169.348 39.9961 168.772 39.8105C168.488 39.7227 168.059 39.6787 167.483 39.6787V39.1367ZM197.927 40.2207V48.0723H202.293C203.425 48.0723 204.182 47.9014 204.563 47.5596C205.071 47.1104 205.354 46.3193 205.413 45.1865H205.955V52.1006H205.413C205.276 51.1338 205.139 50.5137 205.003 50.2402C204.827 49.8984 204.539 49.6299 204.138 49.4346C203.738 49.2393 203.123 49.1416 202.293 49.1416H197.927V55.6895C197.927 56.5684 197.966 57.1055 198.045 57.3008C198.123 57.4863 198.259 57.6377 198.455 57.7549C198.65 57.8623 199.021 57.916 199.568 57.916H202.937C204.06 57.916 204.876 57.8379 205.383 57.6816C205.891 57.5254 206.379 57.2178 206.848 56.7588C207.454 56.1533 208.074 55.2402 208.709 54.0195H209.295L207.581 59H192.273V58.458H192.976C193.445 58.458 193.889 58.3457 194.309 58.1211C194.622 57.9648 194.832 57.7305 194.939 57.418C195.056 57.1055 195.115 56.4658 195.115 55.499V42.5938C195.115 41.334 194.988 40.5576 194.734 40.2646C194.382 39.874 193.796 39.6787 192.976 39.6787H192.273V39.1367H207.581L207.8 43.4873H207.229C207.024 42.4424 206.795 41.7246 206.541 41.334C206.296 40.9434 205.93 40.6455 205.442 40.4404C205.051 40.2939 204.363 40.2207 203.377 40.2207H197.927ZM227.85 49.6982V55.4844C227.85 56.7344 227.987 57.5107 228.26 57.8135C228.631 58.2432 229.193 58.458 229.945 58.458H230.706V59H222.196V58.458H222.943C223.783 58.458 224.383 58.1846 224.745 57.6377C224.94 57.335 225.038 56.6172 225.038 55.4844V42.6523C225.038 41.4023 224.906 40.626 224.642 40.3232C224.261 39.8936 223.695 39.6787 222.943 39.6787H222.196V39.1367H229.476C231.253 39.1367 232.655 39.3223 233.68 39.6934C234.705 40.0547 235.57 40.6699 236.273 41.5391C236.976 42.4082 237.328 43.4385 237.328 44.6299C237.328 46.251 236.79 47.5693 235.716 48.585C234.652 49.6006 233.143 50.1084 231.19 50.1084C230.711 50.1084 230.194 50.0742 229.637 50.0059C229.08 49.9375 228.485 49.835 227.85 49.6982ZM227.85 48.8633C228.368 48.9609 228.827 49.0342 229.227 49.083C229.627 49.1318 229.969 49.1562 230.252 49.1562C231.268 49.1562 232.142 48.7656 232.874 47.9844C233.617 47.1934 233.988 46.1729 233.988 44.9229C233.988 44.0635 233.812 43.2676 233.46 42.5352C233.109 41.793 232.611 41.2412 231.966 40.8799C231.322 40.5088 230.589 40.3232 229.769 40.3232C229.271 40.3232 228.631 40.416 227.85 40.6016V48.8633ZM251.469 52.3496H243.778L242.43 55.4844C242.098 56.2559 241.932 56.832 241.932 57.2129C241.932 57.5156 242.074 57.7842 242.357 58.0186C242.65 58.2432 243.275 58.3896 244.232 58.458V59H237.977V58.458C238.807 58.3115 239.345 58.1211 239.589 57.8867C240.087 57.418 240.638 56.4658 241.244 55.0303L248.231 38.6826H248.744L255.658 55.2061C256.215 56.5342 256.718 57.3984 257.167 57.7988C257.626 58.1895 258.261 58.4092 259.071 58.458V59H251.234V58.458C252.025 58.4189 252.557 58.2871 252.831 58.0625C253.114 57.8379 253.256 57.5645 253.256 57.2422C253.256 56.8125 253.06 56.1338 252.67 55.2061L251.469 52.3496ZM251.058 51.2656L247.689 43.2383L244.232 51.2656H251.058ZM270.78 58.458V59H262.27V58.458H262.973C263.793 58.458 264.389 58.2188 264.76 57.7402C264.994 57.4277 265.112 56.6758 265.112 55.4844V42.6523C265.112 41.6465 265.048 40.9824 264.921 40.6602C264.823 40.416 264.623 40.2061 264.321 40.0303C263.891 39.7959 263.442 39.6787 262.973 39.6787H262.27V39.1367H270.78V39.6787H270.063C269.252 39.6787 268.661 39.918 268.29 40.3965C268.046 40.709 267.924 41.4609 267.924 42.6523V55.4844C267.924 56.4902 267.988 57.1543 268.114 57.4766C268.212 57.7207 268.417 57.9307 268.73 58.1064C269.15 58.3408 269.594 58.458 270.063 58.458H270.78ZM273.217 39.1367H278.608L290.752 54.0342V42.5791C290.752 41.3584 290.615 40.5967 290.341 40.2939C289.98 39.8838 289.409 39.6787 288.628 39.6787H287.939V39.1367H294.853V39.6787H294.15C293.31 39.6787 292.714 39.9326 292.363 40.4404C292.148 40.7529 292.041 41.4658 292.041 42.5791V59.3223H291.513L278.418 43.3262V55.5576C278.418 56.7783 278.549 57.54 278.813 57.8428C279.184 58.2529 279.755 58.458 280.527 58.458H281.23V59H274.316V58.458H275.004C275.854 58.458 276.455 58.2041 276.806 57.6963C277.021 57.3838 277.129 56.6709 277.129 55.5576V41.7441C276.552 41.0703 276.113 40.626 275.81 40.4111C275.517 40.1963 275.083 39.9961 274.506 39.8105C274.223 39.7227 273.794 39.6787 273.217 39.6787V39.1367ZM314.751 39.1367L314.971 43.7949H314.414C314.307 42.9746 314.16 42.3887 313.975 42.0371C313.672 41.4707 313.267 41.0557 312.759 40.792C312.261 40.5186 311.602 40.3818 310.781 40.3818H307.983V55.5576C307.983 56.7783 308.115 57.54 308.379 57.8428C308.75 58.2529 309.321 58.458 310.093 58.458H310.781V59H302.358V58.458H303.062C303.901 58.458 304.497 58.2041 304.849 57.6963C305.063 57.3838 305.171 56.6709 305.171 55.5576V40.3818H302.783C301.855 40.3818 301.196 40.4502 300.806 40.5869C300.298 40.7725 299.863 41.1289 299.502 41.6562C299.141 42.1836 298.926 42.8965 298.857 43.7949H298.301L298.535 39.1367H314.751ZM324.102 40.2207V48.0723H328.467C329.6 48.0723 330.357 47.9014 330.738 47.5596C331.246 47.1104 331.529 46.3193 331.587 45.1865H332.129V52.1006H331.587C331.451 51.1338 331.314 50.5137 331.177 50.2402C331.001 49.8984 330.713 49.6299 330.313 49.4346C329.913 49.2393 329.297 49.1416 328.467 49.1416H324.102V55.6895C324.102 56.5684 324.141 57.1055 324.219 57.3008C324.297 57.4863 324.434 57.6377 324.629 57.7549C324.825 57.8623 325.196 57.916 325.743 57.916H329.112C330.235 57.916 331.05 57.8379 331.558 57.6816C332.066 57.5254 332.554 57.2178 333.023 56.7588C333.628 56.1533 334.248 55.2402 334.883 54.0195H335.469L333.755 59H318.448V58.458H319.151C319.62 58.458 320.064 58.3457 320.484 58.1211C320.796 57.9648 321.006 57.7305 321.114 57.418C321.231 57.1055 321.289 56.4658 321.289 55.499V42.5938C321.289 41.334 321.163 40.5576 320.909 40.2646C320.557 39.874 319.971 39.6787 319.151 39.6787H318.448V39.1367H333.755L333.975 43.4873H333.404C333.199 42.4424 332.969 41.7246 332.715 41.334C332.471 40.9434 332.105 40.6455 331.617 40.4404C331.226 40.2939 330.538 40.2207 329.551 40.2207H324.102ZM358.546 59H353.243L346.519 49.7129C346.021 49.7324 345.616 49.7422 345.304 49.7422C345.177 49.7422 345.04 49.7422 344.893 49.7422C344.747 49.7324 344.596 49.7227 344.439 49.7129V55.4844C344.439 56.7344 344.576 57.5107 344.849 57.8135C345.221 58.2432 345.777 58.458 346.519 58.458H347.296V59H338.785V58.458H339.532C340.372 58.458 340.972 58.1846 341.334 57.6377C341.539 57.335 341.641 56.6172 341.641 55.4844V42.6523C341.641 41.4023 341.505 40.626 341.231 40.3232C340.85 39.8936 340.284 39.6787 339.532 39.6787H338.785V39.1367H346.021C348.131 39.1367 349.683 39.293 350.68 39.6055C351.685 39.9082 352.535 40.4746 353.228 41.3047C353.931 42.125 354.283 43.1064 354.283 44.249C354.283 45.4697 353.883 46.5293 353.082 47.4277C352.291 48.3262 351.06 48.9609 349.39 49.332L353.492 55.0303C354.43 56.3389 355.235 57.208 355.909 57.6377C356.583 58.0674 357.462 58.3408 358.546 58.458V59ZM344.439 48.79C344.625 48.79 344.786 48.7949 344.923 48.8047C345.059 48.8047 345.172 48.8047 345.26 48.8047C347.154 48.8047 348.58 48.3945 349.537 47.5742C350.504 46.7539 350.987 45.709 350.987 44.4395C350.987 43.1992 350.596 42.1934 349.815 41.4219C349.044 40.6406 348.018 40.25 346.739 40.25C346.173 40.25 345.406 40.3428 344.439 40.5283V48.79ZM374.137 38.6826V45.5527H373.595C373.419 44.2344 373.102 43.1846 372.643 42.4033C372.194 41.6221 371.549 41.002 370.709 40.543C369.869 40.084 369 39.8545 368.102 39.8545C367.086 39.8545 366.246 40.167 365.582 40.792C364.918 41.4072 364.586 42.1104 364.586 42.9014C364.586 43.5068 364.796 44.0586 365.216 44.5566C365.821 45.2891 367.262 46.2656 369.537 47.4863C371.393 48.4824 372.657 49.249 373.331 49.7861C374.015 50.3135 374.537 50.9385 374.899 51.6611C375.27 52.3838 375.455 53.1406 375.455 53.9316C375.455 55.4355 374.869 56.7344 373.697 57.8281C372.535 58.9121 371.036 59.4541 369.2 59.4541C368.624 59.4541 368.082 59.4102 367.574 59.3223C367.272 59.2734 366.642 59.0977 365.685 58.7949C364.737 58.4824 364.137 58.3262 363.883 58.3262C363.639 58.3262 363.444 58.3994 363.297 58.5459C363.16 58.6924 363.058 58.9951 362.989 59.4541H362.447V52.6426H362.989C363.243 54.0684 363.585 55.1377 364.015 55.8506C364.445 56.5537 365.099 57.1396 365.978 57.6084C366.866 58.0771 367.838 58.3115 368.893 58.3115C370.113 58.3115 371.075 57.9893 371.779 57.3447C372.491 56.7002 372.848 55.9385 372.848 55.0596C372.848 54.5713 372.711 54.0781 372.438 53.5801C372.174 53.082 371.759 52.6182 371.193 52.1885C370.812 51.8955 369.772 51.2754 368.072 50.3281C366.373 49.3711 365.162 48.6094 364.44 48.043C363.727 47.4766 363.185 46.8516 362.814 46.168C362.443 45.4844 362.257 44.7324 362.257 43.9121C362.257 42.4863 362.804 41.2607 363.898 40.2354C364.991 39.2002 366.383 38.6826 368.072 38.6826C369.127 38.6826 370.245 38.9414 371.427 39.459C371.974 39.7031 372.36 39.8252 372.584 39.8252C372.838 39.8252 373.043 39.752 373.199 39.6055C373.365 39.4492 373.497 39.1416 373.595 38.6826H374.137Z" fill="#7C2617"/>
<path d="M403.687 45.8096L402.166 51.1094C402.629 50.6055 403.016 50.2715 403.326 50.1074C403.637 49.9375 403.974 49.8525 404.337 49.8525C405.04 49.8525 405.564 50.1074 405.91 50.6172C406.262 51.1211 406.438 51.7041 406.438 52.3662C406.438 53.9482 405.863 55.3604 404.715 56.6025C403.695 57.6982 402.535 58.2461 401.234 58.2461C400.268 58.2461 399.245 57.9619 398.167 57.3936L400.856 48.0684C400.985 47.6289 401.05 47.3271 401.05 47.1631C401.05 47.0225 400.991 46.9111 400.874 46.8291C400.71 46.7119 400.461 46.6621 400.127 46.6797L400.224 46.3281L403.159 45.8096H403.687ZM400.312 57.4814C400.587 57.6572 400.836 57.7451 401.059 57.7451C401.369 57.7451 401.63 57.6836 401.841 57.5605C402.175 57.3613 402.523 57.001 402.887 56.4795C403.256 55.958 403.563 55.3281 403.81 54.5898C404.056 53.8516 404.179 53.1162 404.179 52.3838C404.179 51.9678 404.085 51.6514 403.897 51.4346C403.71 51.2178 403.493 51.1094 403.247 51.1094C402.837 51.1094 402.479 51.3086 402.175 51.707C401.97 51.9648 401.747 52.5127 401.507 53.3506L400.312 57.4814ZM407.997 50.6436L410.704 49.8525C410.921 50.1221 411.073 50.377 411.161 50.6172C411.319 51.0332 411.431 51.6074 411.495 52.3398C411.618 53.7812 411.703 55.3193 411.75 56.9541C412.377 56.1279 413.095 55.0352 413.903 53.6758C414.149 53.2656 414.272 52.8789 414.272 52.5156C414.272 52.2871 414.129 52.0703 413.842 51.8652C413.561 51.6602 413.385 51.502 413.314 51.3906C413.244 51.2734 413.209 51.124 413.209 50.9424C413.209 50.6494 413.314 50.3945 413.525 50.1777C413.742 49.9609 414.003 49.8525 414.308 49.8525C414.63 49.8525 414.908 49.9756 415.143 50.2217C415.383 50.4678 415.503 50.7578 415.503 51.0918C415.503 51.4844 415.392 51.9414 415.169 52.4629C414.952 52.9785 414.439 53.8662 413.631 55.126C412.594 56.7373 411.577 58.1318 410.581 59.3096C409.942 60.0596 409.427 60.5986 409.034 60.9268C408.642 61.2607 408.234 61.5244 407.812 61.7178C407.561 61.8291 407.311 61.8848 407.065 61.8848C406.731 61.8848 406.447 61.7676 406.213 61.5332C405.973 61.2988 405.852 61.0205 405.852 60.6982C405.852 60.376 405.961 60.1035 406.178 59.8809C406.389 59.6582 406.638 59.5469 406.925 59.5469C407.282 59.5469 407.61 59.7344 407.909 60.1094C408.108 60.3613 408.272 60.4873 408.401 60.4873C408.536 60.4873 408.668 60.4492 408.797 60.373C408.973 60.2793 409.219 60.0625 409.535 59.7227C409.57 58.9902 409.588 58.4365 409.588 58.0615C409.588 57.5576 409.564 56.8486 409.518 55.9346L409.368 52.5859C409.315 51.9707 409.184 51.5283 408.973 51.2588C408.809 51.0596 408.595 50.96 408.331 50.96C408.231 50.96 408.12 50.9688 407.997 50.9863V50.6436ZM423.904 46.082H428.615C429.664 46.082 430.414 46.1377 430.865 46.249C431.457 46.3896 431.914 46.665 432.236 47.0752C432.564 47.4795 432.728 47.9395 432.728 48.4551C432.728 48.877 432.599 49.3076 432.342 49.7471C432.084 50.1865 431.697 50.5498 431.182 50.8369C430.672 51.1182 429.887 51.3789 428.826 51.6191C429.928 51.9297 430.692 52.3281 431.12 52.8145C431.548 53.3008 431.762 53.8662 431.762 54.5107C431.762 55.1143 431.551 55.7119 431.129 56.3037C430.707 56.8896 430.147 57.3203 429.45 57.5957C428.753 57.8652 427.475 58 425.618 58H420.661L420.775 57.6748C421.256 57.6748 421.599 57.6309 421.804 57.543C422.015 57.4551 422.182 57.3203 422.305 57.1387C422.433 56.9512 422.583 56.5645 422.753 55.9785L424.88 48.6484C425.097 47.9043 425.205 47.4062 425.205 47.1543C425.205 46.9492 425.117 46.7793 424.941 46.6445C424.771 46.5098 424.396 46.4307 423.816 46.4072L423.904 46.082ZM426.602 51.3467C427.399 51.335 428.026 51.209 428.483 50.9688C428.946 50.7285 429.315 50.3359 429.591 49.791C429.872 49.2402 430.013 48.7217 430.013 48.2354C430.013 47.7783 429.869 47.4062 429.582 47.1191C429.295 46.832 428.911 46.6943 428.431 46.7061L427.947 46.7236L426.602 51.3467ZM426.391 52.0059L424.871 57.3057C425.164 57.3174 425.384 57.3232 425.53 57.3232C426.837 57.3232 427.745 56.96 428.255 56.2334C428.765 55.501 429.019 54.7188 429.019 53.8867C429.019 53.4883 428.92 53.1367 428.721 52.832C428.527 52.5215 428.275 52.3076 427.965 52.1904C427.654 52.0674 427.13 52.0059 426.391 52.0059ZM436.476 54.7041C436.424 55.085 436.397 55.3984 436.397 55.6445C436.397 56.084 436.523 56.4355 436.775 56.6992C437.033 56.9629 437.376 57.0947 437.804 57.0947C438.214 57.0947 438.624 56.9951 439.034 56.7959C439.45 56.5967 439.931 56.248 440.475 55.75L440.739 55.9873C440.065 56.8018 439.409 57.3818 438.77 57.7275C438.132 58.0732 437.426 58.2461 436.652 58.2461C435.674 58.2461 434.997 58.0117 434.622 57.543C434.247 57.0742 434.059 56.5322 434.059 55.917C434.059 54.9561 434.338 53.9951 434.894 53.0342C435.457 52.0732 436.219 51.3027 437.18 50.7227C438.146 50.1426 439.116 49.8525 440.089 49.8525C440.581 49.8525 440.953 49.9697 441.205 50.2041C441.457 50.4385 441.583 50.7344 441.583 51.0918C441.583 51.5195 441.46 51.9355 441.214 52.3398C440.874 52.8906 440.446 53.3359 439.931 53.6758C439.415 54.0098 438.838 54.2646 438.199 54.4404C437.771 54.5576 437.197 54.6455 436.476 54.7041ZM436.556 54.2471C437.071 54.1709 437.47 54.0684 437.751 53.9395C438.038 53.8047 438.316 53.5938 438.586 53.3066C438.861 53.0137 439.098 52.6475 439.298 52.208C439.497 51.7627 439.597 51.3467 439.597 50.96C439.597 50.7959 439.55 50.667 439.456 50.5732C439.368 50.4795 439.254 50.4326 439.113 50.4326C438.832 50.4326 438.515 50.6289 438.164 51.0215C437.519 51.7363 436.983 52.8115 436.556 54.2471ZM446.465 49.8525L445.138 54.792C446.227 52.3838 447.048 50.9014 447.598 50.3447C447.921 50.0166 448.261 49.8525 448.618 49.8525C448.864 49.8525 449.063 49.9434 449.216 50.125C449.368 50.3008 449.444 50.5527 449.444 50.8809C449.444 51.4492 449.306 51.9268 449.031 52.3135C448.855 52.5596 448.659 52.6826 448.442 52.6826C448.208 52.6826 448.032 52.5742 447.915 52.3574C447.798 52.1406 447.716 52.0146 447.669 51.9795C447.622 51.9385 447.572 51.918 447.519 51.918C447.461 51.918 447.399 51.9355 447.335 51.9707C447.206 52.041 447.036 52.2139 446.825 52.4893C446.62 52.7588 446.365 53.2129 446.06 53.8516C445.756 54.4902 445.518 55.0322 445.348 55.4775C445.179 55.917 444.941 56.7578 444.637 58H442.51L443.96 52.1729C444.065 51.7393 444.118 51.4521 444.118 51.3115C444.118 51.1533 444.089 51.0303 444.03 50.9424C443.977 50.8545 443.901 50.79 443.802 50.749C443.708 50.708 443.509 50.6875 443.204 50.6875L443.283 50.4326L445.937 49.8525H446.465ZM454.563 49.8525L453.473 53.623C454.206 52.5215 454.754 51.7686 455.117 51.3643C455.65 50.7783 456.11 50.3799 456.497 50.1689C456.884 49.958 457.247 49.8525 457.587 49.8525C457.891 49.8525 458.152 49.9668 458.369 50.1953C458.586 50.418 458.694 50.7109 458.694 51.0742C458.694 51.4023 458.624 51.8008 458.483 52.2695L457.358 56.0225C457.264 56.3506 457.218 56.5645 457.218 56.6641C457.218 56.7227 457.238 56.7754 457.279 56.8223C457.326 56.8691 457.373 56.8926 457.42 56.8926C457.478 56.8926 457.54 56.8691 457.604 56.8223C457.809 56.6523 458.017 56.4121 458.228 56.1016C458.281 56.0195 458.366 55.8965 458.483 55.7324L458.817 55.9346C457.956 57.3818 457.051 58.1055 456.101 58.1055C455.738 58.1055 455.454 58.0117 455.249 57.8242C455.044 57.6367 454.941 57.4023 454.941 57.1211C454.941 56.875 455.011 56.5088 455.152 56.0225L456.251 52.2695C456.327 52.0234 456.365 51.8418 456.365 51.7246C456.365 51.6602 456.339 51.6045 456.286 51.5576C456.233 51.5049 456.172 51.4785 456.101 51.4785C455.879 51.4785 455.609 51.6309 455.293 51.9355C454.484 52.709 453.702 53.8604 452.946 55.3896L452.225 58H449.984L451.628 52.3574C451.786 51.8008 451.865 51.4053 451.865 51.1709C451.865 51.0713 451.842 50.9893 451.795 50.9248C451.748 50.8545 451.672 50.8018 451.566 50.7666C451.461 50.7256 451.261 50.7051 450.969 50.7051L451.065 50.3711L454.027 49.8525H454.563ZM468.937 49.9756L467.232 55.8203L467.056 56.5322C467.039 56.6201 467.03 56.6846 467.03 56.7256C467.03 56.7959 467.053 56.8574 467.1 56.9102C467.153 56.9629 467.206 56.9893 467.259 56.9893C467.382 56.9893 467.551 56.8955 467.768 56.708C467.856 56.6318 468.067 56.3623 468.401 55.8994L468.709 56.0576C468.293 56.8193 467.847 57.376 467.373 57.7275C466.904 58.0732 466.397 58.2461 465.852 58.2461C465.518 58.2461 465.263 58.1611 465.088 57.9912C464.912 57.8154 464.824 57.5957 464.824 57.332C464.824 57.1035 464.918 56.6787 465.105 56.0576L465.316 55.3457C464.636 56.5117 463.983 57.3379 463.356 57.8242C462.993 58.1055 462.606 58.2461 462.196 58.2461C461.657 58.2461 461.267 58.0264 461.027 57.5869C460.787 57.1416 460.667 56.6406 460.667 56.084C460.667 55.2578 460.919 54.3115 461.423 53.2451C461.926 52.1729 462.589 51.3115 463.409 50.6611C464.083 50.1221 464.716 49.8525 465.307 49.8525C465.635 49.8525 465.899 49.9492 466.098 50.1426C466.298 50.3301 466.444 50.6758 466.538 51.1797L466.854 50.0986L468.937 49.9756ZM466.125 51.6455C466.125 51.1709 466.051 50.8281 465.905 50.6172C465.8 50.4707 465.656 50.3975 465.474 50.3975C465.293 50.3975 465.105 50.4854 464.912 50.6611C464.519 51.0244 464.094 51.7627 463.637 52.876C463.186 53.9834 462.961 54.9414 462.961 55.75C462.961 56.0605 463.01 56.2861 463.11 56.4268C463.216 56.5615 463.33 56.6289 463.453 56.6289C463.717 56.6289 463.983 56.4766 464.253 56.1719C464.639 55.7383 464.988 55.208 465.299 54.5811C465.849 53.4795 466.125 52.501 466.125 51.6455ZM474.118 49.8525L472.791 54.792C473.881 52.3838 474.701 50.9014 475.252 50.3447C475.574 50.0166 475.914 49.8525 476.271 49.8525C476.517 49.8525 476.716 49.9434 476.869 50.125C477.021 50.3008 477.097 50.5527 477.097 50.8809C477.097 51.4492 476.96 51.9268 476.684 52.3135C476.508 52.5596 476.312 52.6826 476.095 52.6826C475.861 52.6826 475.685 52.5742 475.568 52.3574C475.451 52.1406 475.369 52.0146 475.322 51.9795C475.275 51.9385 475.225 51.918 475.173 51.918C475.114 51.918 475.052 51.9355 474.988 51.9707C474.859 52.041 474.689 52.2139 474.478 52.4893C474.273 52.7588 474.018 53.2129 473.714 53.8516C473.409 54.4902 473.172 55.0322 473.002 55.4775C472.832 55.917 472.594 56.7578 472.29 58H470.163L471.613 52.1729C471.718 51.7393 471.771 51.4521 471.771 51.3115C471.771 51.1533 471.742 51.0303 471.683 50.9424C471.631 50.8545 471.554 50.79 471.455 50.749C471.361 50.708 471.162 50.6875 470.857 50.6875L470.936 50.4326L473.591 49.8525H474.118ZM487.226 45.8096L484.37 55.6445C484.188 56.2598 484.097 56.6318 484.097 56.7607C484.097 56.8252 484.121 56.8809 484.168 56.9277C484.214 56.9746 484.264 56.998 484.317 56.998C484.417 56.998 484.531 56.9482 484.66 56.8486C484.877 56.6846 485.14 56.374 485.451 55.917L485.767 56.084C484.941 57.5254 484.033 58.2461 483.043 58.2461C482.691 58.2461 482.419 58.1553 482.225 57.9736C482.038 57.7861 481.944 57.5488 481.944 57.2617C481.944 56.9863 482.02 56.5938 482.173 56.084L482.436 55.1875C481.704 56.4824 481.068 57.3438 480.529 57.7715C480.119 58.0879 479.72 58.2461 479.334 58.2461C478.894 58.2461 478.522 58.0674 478.217 57.71C477.919 57.3525 477.769 56.8311 477.769 56.1455C477.769 55.2725 477.963 54.4111 478.349 53.5615C478.736 52.7119 479.181 52.0029 479.685 51.4346C480.195 50.8662 480.678 50.4619 481.135 50.2217C481.598 49.9756 482.052 49.8525 482.498 49.8525C482.726 49.8525 482.928 49.8994 483.104 49.9932C483.286 50.0869 483.491 50.2627 483.719 50.5205L484.37 48.332C484.528 47.793 484.607 47.4062 484.607 47.1719C484.607 47.0312 484.554 46.9111 484.449 46.8115C484.343 46.7119 484.203 46.6621 484.027 46.6621C483.945 46.6621 483.842 46.6709 483.719 46.6885L483.807 46.3457L486.699 45.8096H487.226ZM483.359 51.3818C483.359 51.0244 483.289 50.7637 483.148 50.5996C483.007 50.4355 482.843 50.3535 482.656 50.3535C482.468 50.3535 482.266 50.4502 482.049 50.6436C481.633 51.0186 481.197 51.7744 480.74 52.9111C480.289 54.042 480.063 54.9941 480.063 55.7676C480.063 56.0488 480.113 56.2568 480.213 56.3916C480.312 56.5264 480.423 56.5938 480.547 56.5938C480.752 56.5938 480.957 56.5 481.162 56.3125C481.66 55.8672 482.149 55.1025 482.63 54.0186C483.116 52.9287 483.359 52.0498 483.359 51.3818ZM494.775 46.082H499.486C500.535 46.082 501.285 46.1377 501.736 46.249C502.328 46.3896 502.785 46.665 503.107 47.0752C503.435 47.4795 503.599 47.9395 503.599 48.4551C503.599 48.877 503.47 49.3076 503.212 49.7471C502.955 50.1865 502.568 50.5498 502.052 50.8369C501.543 51.1182 500.757 51.3789 499.697 51.6191C500.798 51.9297 501.563 52.3281 501.991 52.8145C502.419 53.3008 502.632 53.8662 502.632 54.5107C502.632 55.1143 502.421 55.7119 502 56.3037C501.578 56.8896 501.018 57.3203 500.321 57.5957C499.624 57.8652 498.346 58 496.489 58H491.532L491.646 57.6748C492.127 57.6748 492.469 57.6309 492.674 57.543C492.885 57.4551 493.052 57.3203 493.175 57.1387C493.304 56.9512 493.454 56.5645 493.624 55.9785L495.751 48.6484C495.967 47.9043 496.076 47.4062 496.076 47.1543C496.076 46.9492 495.988 46.7793 495.812 46.6445C495.642 46.5098 495.267 46.4307 494.687 46.4072L494.775 46.082ZM497.473 51.3467C498.27 51.335 498.897 51.209 499.354 50.9688C499.817 50.7285 500.186 50.3359 500.461 49.791C500.743 49.2402 500.883 48.7217 500.883 48.2354C500.883 47.7783 500.74 47.4062 500.453 47.1191C500.166 46.832 499.782 46.6943 499.301 46.7061L498.818 46.7236L497.473 51.3467ZM497.262 52.0059L495.742 57.3057C496.035 57.3174 496.254 57.3232 496.401 57.3232C497.708 57.3232 498.616 56.96 499.126 56.2334C499.635 55.501 499.89 54.7188 499.89 53.8867C499.89 53.4883 499.791 53.1367 499.591 52.832C499.398 52.5215 499.146 52.3076 498.836 52.1904C498.525 52.0674 498.001 52.0059 497.262 52.0059ZM507.347 54.7041C507.294 55.085 507.268 55.3984 507.268 55.6445C507.268 56.084 507.394 56.4355 507.646 56.6992C507.904 56.9629 508.247 57.0947 508.674 57.0947C509.084 57.0947 509.495 56.9951 509.905 56.7959C510.321 56.5967 510.801 56.248 511.346 55.75L511.61 55.9873C510.936 56.8018 510.28 57.3818 509.641 57.7275C509.002 58.0732 508.296 58.2461 507.523 58.2461C506.544 58.2461 505.868 58.0117 505.493 57.543C505.118 57.0742 504.93 56.5322 504.93 55.917C504.93 54.9561 505.209 53.9951 505.765 53.0342C506.328 52.0732 507.089 51.3027 508.05 50.7227C509.017 50.1426 509.987 49.8525 510.959 49.8525C511.452 49.8525 511.824 49.9697 512.076 50.2041C512.328 50.4385 512.454 50.7344 512.454 51.0918C512.454 51.5195 512.331 51.9355 512.084 52.3398C511.745 52.8906 511.317 53.3359 510.801 53.6758C510.286 54.0098 509.709 54.2646 509.07 54.4404C508.642 54.5576 508.068 54.6455 507.347 54.7041ZM507.426 54.2471C507.942 54.1709 508.34 54.0684 508.622 53.9395C508.909 53.8047 509.187 53.5938 509.457 53.3066C509.732 53.0137 509.969 52.6475 510.168 52.208C510.368 51.7627 510.467 51.3467 510.467 50.96C510.467 50.7959 510.42 50.667 510.327 50.5732C510.239 50.4795 510.125 50.4326 509.984 50.4326C509.703 50.4326 509.386 50.6289 509.035 51.0215C508.39 51.7363 507.854 52.8115 507.426 54.2471ZM517.335 49.8525L516.008 54.792C517.098 52.3838 517.918 50.9014 518.469 50.3447C518.791 50.0166 519.131 49.8525 519.489 49.8525C519.735 49.8525 519.934 49.9434 520.086 50.125C520.239 50.3008 520.315 50.5527 520.315 50.8809C520.315 51.4492 520.177 51.9268 519.902 52.3135C519.726 52.5596 519.53 52.6826 519.313 52.6826C519.079 52.6826 518.903 52.5742 518.786 52.3574C518.668 52.1406 518.586 52.0146 518.54 51.9795C518.493 51.9385 518.443 51.918 518.39 51.918C518.332 51.918 518.27 51.9355 518.206 51.9707C518.077 52.041 517.907 52.2139 517.696 52.4893C517.491 52.7588 517.236 53.2129 516.931 53.8516C516.626 54.4902 516.389 55.0322 516.219 55.4775C516.049 55.917 515.812 56.7578 515.507 58H513.38L514.831 52.1729C514.936 51.7393 514.989 51.4521 514.989 51.3115C514.989 51.1533 514.959 51.0303 514.901 50.9424C514.848 50.8545 514.772 50.79 514.672 50.749C514.579 50.708 514.379 50.6875 514.075 50.6875L514.154 50.4326L516.808 49.8525H517.335ZM523.439 54.7041C523.386 55.085 523.36 55.3984 523.36 55.6445C523.36 56.084 523.486 56.4355 523.738 56.6992C523.996 56.9629 524.338 57.0947 524.766 57.0947C525.176 57.0947 525.586 56.9951 525.997 56.7959C526.413 56.5967 526.893 56.248 527.438 55.75L527.702 55.9873C527.028 56.8018 526.372 57.3818 525.733 57.7275C525.094 58.0732 524.388 58.2461 523.615 58.2461C522.636 58.2461 521.959 58.0117 521.584 57.543C521.209 57.0742 521.022 56.5322 521.022 55.917C521.022 54.9561 521.3 53.9951 521.857 53.0342C522.419 52.0732 523.181 51.3027 524.142 50.7227C525.109 50.1426 526.079 49.8525 527.051 49.8525C527.543 49.8525 527.915 49.9697 528.167 50.2041C528.419 50.4385 528.545 50.7344 528.545 51.0918C528.545 51.5195 528.422 51.9355 528.176 52.3398C527.836 52.8906 527.409 53.3359 526.893 53.6758C526.377 54.0098 525.8 54.2646 525.162 54.4404C524.734 54.5576 524.16 54.6455 523.439 54.7041ZM523.518 54.2471C524.034 54.1709 524.432 54.0684 524.713 53.9395C525 53.8047 525.279 53.5938 525.548 53.3066C525.824 53.0137 526.061 52.6475 526.26 52.208C526.459 51.7627 526.559 51.3467 526.559 50.96C526.559 50.7959 526.512 50.667 526.418 50.5732C526.331 50.4795 526.216 50.4326 526.076 50.4326C525.794 50.4326 525.478 50.6289 525.126 51.0215C524.482 51.7363 523.946 52.8115 523.518 54.2471ZM533.972 49.8525L532.882 53.623C533.615 52.5215 534.163 51.7686 534.526 51.3643C535.059 50.7783 535.519 50.3799 535.906 50.1689C536.292 49.958 536.656 49.8525 536.996 49.8525C537.3 49.8525 537.561 49.9668 537.778 50.1953C537.995 50.418 538.103 50.7109 538.103 51.0742C538.103 51.4023 538.033 51.8008 537.892 52.2695L536.767 56.0225C536.673 56.3506 536.626 56.5645 536.626 56.6641C536.626 56.7227 536.647 56.7754 536.688 56.8223C536.735 56.8691 536.782 56.8926 536.829 56.8926C536.887 56.8926 536.949 56.8691 537.013 56.8223C537.218 56.6523 537.426 56.4121 537.637 56.1016C537.69 56.0195 537.775 55.8965 537.892 55.7324L538.226 55.9346C537.365 57.3818 536.459 58.1055 535.51 58.1055C535.147 58.1055 534.863 58.0117 534.658 57.8242C534.453 57.6367 534.35 57.4023 534.35 57.1211C534.35 56.875 534.42 56.5088 534.561 56.0225L535.66 52.2695C535.736 52.0234 535.774 51.8418 535.774 51.7246C535.774 51.6602 535.747 51.6045 535.695 51.5576C535.642 51.5049 535.58 51.4785 535.51 51.4785C535.288 51.4785 535.018 51.6309 534.702 51.9355C533.893 52.709 533.111 53.8604 532.355 55.3896L531.634 58H529.393L531.037 52.3574C531.195 51.8008 531.274 51.4053 531.274 51.1709C531.274 51.0713 531.25 50.9893 531.204 50.9248C531.157 50.8545 531.08 50.8018 530.975 50.7666C530.87 50.7256 530.67 50.7051 530.377 50.7051L530.474 50.3711L533.436 49.8525H533.972ZM546.421 49.8525L546.035 52.5684H545.709C545.662 51.8652 545.446 51.3115 545.059 50.9072C544.678 50.5029 544.268 50.3008 543.828 50.3008C543.559 50.3008 543.336 50.3799 543.161 50.5381C542.985 50.6963 542.897 50.8867 542.897 51.1094C542.897 51.2969 542.935 51.4727 543.011 51.6367C543.087 51.8008 543.257 52.0234 543.521 52.3047C544.447 53.3008 545.009 53.9863 545.208 54.3613C545.408 54.7363 545.507 55.1377 545.507 55.5654C545.507 56.0283 545.39 56.4678 545.156 56.8838C544.921 57.2939 544.57 57.625 544.101 57.877C543.638 58.123 543.155 58.2461 542.651 58.2461C542.311 58.2461 541.892 58.1787 541.394 58.0439C541.066 57.9502 540.82 57.9033 540.656 57.9033C540.509 57.9033 540.395 57.9268 540.313 57.9736C540.231 58.0146 540.14 58.1055 540.04 58.2461H539.715L540.146 55.3193H540.427C540.632 56.0283 540.823 56.5352 540.998 56.8398C541.18 57.1387 541.42 57.3789 541.719 57.5605C542.018 57.7363 542.305 57.8242 542.58 57.8242C542.903 57.8242 543.169 57.7246 543.38 57.5254C543.591 57.3203 543.697 57.0771 543.697 56.7959C543.697 56.5205 543.626 56.2539 543.486 55.9961C543.351 55.7383 543.035 55.3369 542.536 54.792C541.851 54.0479 541.4 53.4736 541.183 53.0693C541.031 52.7764 540.954 52.4424 540.954 52.0674C540.954 51.4346 541.183 50.9072 541.64 50.4854C542.103 50.0635 542.75 49.8525 543.582 49.8525C543.946 49.8525 544.391 49.917 544.918 50.0459C545.182 50.1104 545.393 50.1426 545.551 50.1426C545.78 50.1426 545.964 50.0459 546.105 49.8525H546.421ZM553.193 49.8525C553.656 49.8525 554.089 49.9609 554.493 50.1777C554.904 50.3887 555.211 50.6846 555.416 51.0654C555.627 51.4463 555.733 51.8682 555.733 52.3311C555.733 53.2803 555.466 54.2295 554.933 55.1787C554.406 56.1279 553.708 56.8779 552.841 57.4287C551.974 57.9736 551.101 58.2461 550.222 58.2461C549.425 58.2461 548.807 58.0088 548.368 57.5342C547.934 57.0596 547.717 56.4795 547.717 55.7939C547.717 54.9795 547.878 54.2178 548.201 53.5088C548.529 52.7939 548.942 52.1729 549.44 51.6455C549.944 51.1123 550.521 50.6816 551.171 50.3535C551.822 50.0195 552.495 49.8525 553.193 49.8525ZM552.832 50.3184C552.522 50.3184 552.264 50.4092 552.059 50.5908C551.649 50.96 551.186 51.8242 550.67 53.1836C550.155 54.5371 549.897 55.7588 549.897 56.8486C549.897 57.1182 549.979 57.3408 550.143 57.5166C550.307 57.6924 550.5 57.7803 550.723 57.7803C550.951 57.7803 551.154 57.71 551.329 57.5693C551.587 57.3584 551.904 56.8867 552.279 56.1543C552.654 55.416 552.961 54.6045 553.201 53.7197C553.442 52.8291 553.562 52.0146 553.562 51.2764C553.562 50.9717 553.489 50.7373 553.342 50.5732C553.196 50.4033 553.026 50.3184 552.832 50.3184ZM561.625 49.8525L560.535 53.623C561.268 52.5215 561.816 51.7686 562.179 51.3643C562.712 50.7783 563.172 50.3799 563.559 50.1689C563.946 49.958 564.309 49.8525 564.649 49.8525C564.953 49.8525 565.214 49.9668 565.431 50.1953C565.648 50.418 565.756 50.7109 565.756 51.0742C565.756 51.4023 565.686 51.8008 565.545 52.2695L564.42 56.0225C564.326 56.3506 564.28 56.5645 564.28 56.6641C564.28 56.7227 564.3 56.7754 564.341 56.8223C564.388 56.8691 564.435 56.8926 564.482 56.8926C564.54 56.8926 564.602 56.8691 564.666 56.8223C564.871 56.6523 565.079 56.4121 565.29 56.1016C565.343 56.0195 565.428 55.8965 565.545 55.7324L565.879 55.9346C565.018 57.3818 564.113 58.1055 563.163 58.1055C562.8 58.1055 562.516 58.0117 562.311 57.8242C562.106 57.6367 562.003 57.4023 562.003 57.1211C562.003 56.875 562.074 56.5088 562.214 56.0225L563.313 52.2695C563.389 52.0234 563.427 51.8418 563.427 51.7246C563.427 51.6602 563.401 51.6045 563.348 51.5576C563.295 51.5049 563.234 51.4785 563.163 51.4785C562.941 51.4785 562.671 51.6309 562.355 51.9355C561.546 52.709 560.764 53.8604 560.008 55.3896L559.287 58H557.046L558.69 52.3574C558.848 51.8008 558.927 51.4053 558.927 51.1709C558.927 51.0713 558.904 50.9893 558.857 50.9248C558.81 50.8545 558.734 50.8018 558.628 50.7666C558.523 50.7256 558.324 50.7051 558.031 50.7051L558.127 50.3711L561.089 49.8525H561.625Z" fill="#7C2617"/>
</g>
<defs>
<clipPath id="clip0">
<rect width="573" height="65" fill="white"/>
</clipPath>
</defs>
</svg>
