<svg width="793" height="225" viewBox="0 0 793 225" fill="none" xmlns="http://www.w3.org/2000/svg">
<path fill-rule="evenodd" clip-rule="evenodd" d="M70.0027 1.72025C58.6274 7.87892 57.3903 24.0447 67.701 31.8149C72.201 35.2069 80.2742 35.7771 85.2976 33.0581C96.673 26.8995 97.9101 10.7337 87.5993 2.96349C83.0994 -0.428494 75.0261 -0.998718 70.0027 1.72025ZM85.6985 9.21638C86.932 10.4853 88.2345 13.7806 88.5949 16.5388C89.1742 20.9831 88.8186 21.9963 85.4736 25.4372C82.1477 28.8586 81.1295 29.2416 76.9055 28.6591C71.0007 27.8441 67.8116 25.0248 66.8541 19.7729C65.9489 14.8061 68.2803 9.45989 72.2973 7.2879C76.0693 5.24806 82.7794 6.21475 85.6985 9.21638ZM248.106 25.2585C230.733 30.973 220.987 41.7645 220.987 55.2896C220.987 64.4707 223.194 68.8453 235.94 84.9327C237.644 87.0851 239.327 91.051 239.678 93.7455C240.234 98.0014 239.853 99.1222 236.776 102.288C234.599 104.527 230.53 106.724 226.219 107.989C222.36 109.121 218.759 110.469 218.218 110.986C217.213 111.944 221.357 121.234 226.603 129.782C229.41 134.356 229.695 134.499 234.471 133.73C241.301 132.628 252.706 126.877 258.682 121.521C265.553 115.363 269.99 105.669 270.066 96.6529C270.132 88.5731 267.862 83.129 260.344 73.3446C249.931 59.7939 248.524 54.8172 253.69 49.8247C255.836 47.7506 258.482 46.8035 263.275 46.3948C267.524 46.0326 269.701 45.3388 269.352 44.4577C269.053 43.704 266.805 38.5426 264.355 32.9908C259.327 21.5961 259.291 21.579 248.106 25.2585ZM613.245 26.0221C612.021 27.3118 613.517 108.134 614.868 113.697C616.279 119.499 620.903 125.132 626.787 128.221C636.404 133.267 662.692 134.112 678.48 129.881C687.455 127.477 692.805 123.556 695.851 117.15C698.304 111.993 698.513 109.246 699.473 69.555C700.046 45.8552 700.042 26.9692 699.462 26.3733C698.896 25.7908 692.311 25.7345 684.826 26.246L671.221 27.1785V64.155V101.131L668.027 104.428C661.832 110.823 647.084 109.46 643.005 102.115C641.836 100.011 641.574 90.9139 641.878 62.9705L642.274 26.5666L634.146 26.5556C629.677 26.5507 623.343 26.2191 620.071 25.8202C616.8 25.4225 613.729 25.5131 613.245 26.0221ZM53.466 31.3169C47.9633 35.0723 47.8253 35.3207 49.518 38.4325C50.4982 40.2325 51.2928 40.0134 56.6825 36.4562C61.8997 33.0116 62.5754 32.1282 61.531 30.1226C59.9561 27.0953 59.5683 27.1528 53.466 31.3169ZM129.479 33.6051C114.45 41.4879 118.642 63.5456 135.504 65.3138C145.221 66.3319 154.374 58.2215 154.374 48.5925C154.374 39.9828 145.797 31.4649 137.126 31.4649C135.163 31.4649 131.722 32.428 129.479 33.6051ZM559.387 35.4382C559.091 36.28 558.706 42.4742 558.533 49.2043L558.216 61.4409L554.899 61.8325L551.58 62.224L551.925 72.225L552.269 82.226L555.837 82.8672L559.406 83.5096L558.967 100.619C558.419 122.055 559.564 125.764 567.916 129.563C572.57 131.681 575.075 132.009 582.528 131.475C592.532 130.756 601.1 127.772 602.858 124.392C603.493 123.172 604.013 118.817 604.013 114.717V107.26L596.578 108.01C585.486 109.128 584.386 107.889 584.386 94.2741V83.4667L593.307 82.8549L602.229 82.2431L602.499 70.9243L602.767 59.6054H593.101H583.435L584.191 48.6451L584.947 37.6836L581.098 37.0705C578.981 36.7328 573.725 35.8836 569.419 35.1824C559.707 33.6027 560.036 33.5941 559.387 35.4382ZM27.18 37.21C15.4597 43.5473 14.7257 59.0168 25.7847 66.617C39.4987 76.0416 57.1512 58.5665 48.5593 44.0698C43.8761 36.1699 34.605 33.1952 27.18 37.21ZM145.75 41.8893C149.525 46.3581 149.226 51.6296 144.95 56.0287C135.732 65.5108 120.327 53.5434 127.737 42.659C131.784 36.7157 141.046 36.3192 145.75 41.8893ZM41.4614 44.8273C43.8345 47.2685 44.9384 49.6302 44.9384 52.2635C44.9384 57.5276 39.35 63.2764 34.2327 63.2764C31.6728 63.2764 29.3771 62.1408 27.004 59.6996C22.3291 54.8907 22.3291 49.6363 27.004 44.8273C31.6788 40.0183 36.7866 40.0183 41.4614 44.8273ZM330.997 56.6576C330.354 56.8228 327.855 57.2964 325.444 57.71C323.032 58.1248 318.362 60.3726 315.064 62.7049C311.767 65.0385 308.822 66.9474 308.517 66.9474C308.214 66.9474 307.8 64.8831 307.596 62.3586C307.17 57.0614 306.855 57.0137 291.169 59.8844L282.248 61.5168L282.675 95.1294C282.909 113.616 283.342 129.156 283.637 129.66C283.932 130.164 289.761 130.578 296.592 130.578H309.012V107.31V84.0431L312.878 81.6178C317.88 78.4803 322.344 78.5317 325.183 81.7585C327.209 84.0602 327.476 86.6226 327.698 105.926C327.835 117.801 327.969 128.207 327.995 129.048C328.031 130.171 331.361 130.578 340.534 130.578C349.678 130.578 353.053 130.168 353.129 129.048C353.186 128.207 353.144 118.889 353.036 108.342C352.905 95.51 353.31 88.2231 354.261 86.3167C357.515 79.7909 364.352 77.313 369.153 80.9179C371.262 82.5025 371.513 84.7002 372.056 106.309L372.651 129.966H385.141H397.631L397.944 100.598C398.303 66.9963 397.856 64.9871 388.873 59.811C379.735 54.5456 367.071 56.1914 357.223 63.9237L352.011 68.0168L350.122 65.0519C349.083 63.4208 346.999 61.2549 345.491 60.2393C342.793 58.4197 333.282 56.0703 330.997 56.6576ZM436.404 57.349C425.709 59.1245 417.639 65.6711 412.645 76.6253C408.444 85.8419 408.169 102.44 412.074 111.148C415.508 118.806 422.24 126.207 428.693 129.421C436.655 133.386 447.386 132.462 454.509 127.199C460.09 123.077 461.27 123.163 461.27 127.7C461.27 131.476 464.331 132.143 476.139 130.937L485.656 129.966L485.238 106.716C484.994 93.1606 485.397 79.2035 486.204 73.2431C486.965 67.6204 487.263 62.6866 486.867 62.2791C486.47 61.8716 481.754 60.6223 476.384 59.5026C466.096 57.3576 463.649 57.8764 463.649 62.202C463.649 65.178 463.071 65.1021 458.514 61.5364C455.009 58.7929 452.506 57.8654 445.509 56.72C444.037 56.479 439.94 56.7616 436.404 57.349ZM153.636 59.2995C152.49 61.157 153.674 62.3746 162.563 68.4745C168.2 72.3425 173.423 75.5093 174.171 75.5105C175.292 75.513 176.975 72.9298 176.975 71.2069C176.975 70.551 156.802 57.1581 155.814 57.1581C155.343 57.1581 154.362 58.1211 153.636 59.2995ZM507.662 59.2983C502.101 60.2907 497.399 61.2427 497.213 61.4152C497.027 61.5865 497.503 64.4168 498.269 67.7024C499.037 70.9891 499.992 86.3423 500.391 101.822L501.119 129.966H513.609H526.099V110.589C526.099 91.702 526.171 91.1525 528.908 88.8692C531.004 87.1194 533.597 86.5259 539.135 86.5259H546.554L547.326 73.5539C547.75 66.42 547.76 60.0227 547.35 59.3374C546.194 57.4126 536.929 59.1894 530.415 62.585C527.22 64.2504 524.272 65.271 523.865 64.8525C523.459 64.434 523.126 62.5324 523.126 60.6247C523.126 56.5818 522.974 56.5683 507.662 59.2983ZM727.128 58.4576C723.857 59.0144 719.37 59.8134 717.156 60.2344L713.134 61.0004L714.026 67.9508C714.516 71.7735 715.257 92.5218 715.671 114.058L716.423 153.215L728.615 153.564L740.808 153.913V140.279C740.808 127.778 740.98 126.717 742.889 127.517C755.373 132.747 765.97 133.029 774.857 128.365C793.172 118.753 798.931 89.1617 786.046 70.8655C781.576 64.516 775.401 60.4436 767.191 58.427C759.351 56.5022 752.56 57.5191 745.719 61.6428C741.516 64.177 740.322 64.4572 739.492 63.1087C738.927 62.191 738.457 60.8119 738.447 60.0423C738.43 58.7109 735.564 56.9953 733.87 57.3025C733.434 57.3808 730.399 57.9009 727.128 58.4576ZM51.2892 63.0574C50.0569 65.096 50.8871 65.9538 59.0211 71.054C67.3513 76.2753 68.2613 76.5873 69.6209 74.6821C70.4393 73.5355 71.0971 72.2899 71.0852 71.9142C71.0614 71.1922 55.8974 61.6795 53.8598 61.1068C53.2055 60.9233 52.0493 61.8007 51.2892 63.0574ZM111.311 65.4178C105.534 70.1644 105.042 71.437 108.192 73.4817C109.603 74.3958 111.348 73.5637 115.492 69.9992C119.988 66.1336 120.736 64.9247 119.772 63.072C118.187 60.0251 117.714 60.1561 111.311 65.4178ZM79.9697 69.8927C67.9687 75.2695 65.134 91.6812 74.536 101.354C82.2691 109.308 93.5255 108.987 100.677 100.609C113.695 85.3561 97.8661 61.8741 79.9697 69.8927ZM187.765 70.3149C172.737 78.1977 176.929 100.255 193.79 102.024C203.507 103.042 212.661 94.9312 212.661 85.3022C212.661 76.6926 204.083 68.1747 195.413 68.1747C193.45 68.1747 190.009 69.1377 187.765 70.3149ZM204.037 78.599C207.811 83.0678 207.512 88.3394 203.236 92.7384C194.019 102.221 178.613 90.2532 186.024 79.3687C190.071 73.4254 199.332 73.0289 204.037 78.599ZM455.055 81.6362C463.746 87.0876 463.225 101.879 454.173 106.695C444.226 111.987 433.911 104.948 433.911 92.8706C433.911 81.7805 445.483 75.6329 455.055 81.6362ZM758.69 81.0402C765.245 84.5277 767.941 95.8245 764.059 103.546C760.401 110.823 748.951 111.492 744.062 104.714C738.872 97.5192 741.012 84.3123 747.945 80.749C751.877 78.7275 754.473 78.7973 758.69 81.0402ZM9.33721 89.8237C-2.03817 95.9823 -3.27528 112.148 7.03549 119.918C11.5354 123.31 19.6087 123.881 24.6321 121.162C36.0074 115.003 37.2445 98.8371 26.9338 91.0669C22.4338 87.6749 14.3606 87.1047 9.33721 89.8237ZM51.7781 94.1579C40.6287 96.5342 39.0764 97.5266 41.1771 100.932C41.9455 102.176 44.453 102.031 53.6587 100.209C59.9941 98.9546 65.4909 97.6061 65.8727 97.2133C66.7494 96.3115 65.2803 91.3753 64.1884 91.5527C63.7411 91.6261 58.1563 92.7984 51.7781 94.1579ZM25.0329 97.3198C26.2665 98.5887 27.569 101.884 27.9294 104.642C28.5087 109.086 28.153 110.1 24.8081 113.541C21.4822 116.962 20.464 117.345 16.24 116.763C10.3352 115.948 7.14611 113.128 6.18855 107.876C5.28332 102.909 7.61478 97.5633 11.6318 95.3913C15.4038 93.3515 22.1138 94.3182 25.0329 97.3198ZM107.16 103.508C105.888 105.603 106.751 106.522 115.774 112.7C121.29 116.475 126.057 119.565 126.367 119.565C126.677 119.565 127.493 118.485 128.18 117.166C129.284 115.044 128.395 114.051 120.486 108.56C109.352 100.832 108.891 100.657 107.16 103.508ZM74.0542 111.305C62.3708 143.923 62.8597 142.13 65.3125 143.324C66.7101 144.006 67.9936 144.006 68.5741 143.324C69.6935 142.011 79.4344 114.385 79.4344 112.524C79.4344 111.829 78.5875 110.927 77.5526 110.518C74.9618 109.495 74.6787 109.559 74.0542 111.305ZM138.995 113.077C127.144 119.484 126.392 136.006 137.6 143.707C145.481 149.123 156.125 145.871 160.617 136.671C167.796 121.974 152.8 105.611 138.995 113.077ZM153.276 120.694C155.85 123.342 156.753 125.432 156.753 128.742C156.753 132.052 155.85 134.142 153.276 136.79C148.918 141.274 143.89 141.498 139.274 137.414C136.503 134.962 135.937 133.49 135.937 128.742C135.937 123.994 136.503 122.522 139.274 120.07C143.89 115.987 148.918 116.211 153.276 120.694ZM52.1599 147.405C37.1315 155.288 41.3234 177.346 58.1849 179.114C67.902 180.132 77.0554 172.022 77.0554 162.393C77.0554 153.783 68.4778 145.265 59.8074 145.265C57.8447 145.265 54.4034 146.228 52.1599 147.405ZM68.4314 155.69C72.2057 160.158 71.9072 165.43 67.6308 169.829C58.4132 179.311 43.0078 167.344 50.4185 156.459C54.4652 150.516 63.7268 150.119 68.4314 155.69ZM377.308 183.71C375.291 184.614 372.438 186.925 370.97 188.843C367.672 193.158 368.23 197.068 373.139 204.039C377.274 209.911 376.908 211.937 371.376 213.816L367.338 215.186L369.721 219.993C371.032 222.636 372.646 224.799 373.308 224.799C376.368 224.799 382.579 221.094 385.494 217.53C390.16 211.826 389.646 207.923 383.18 199.926C379.428 195.286 379.649 193.074 383.952 192.189C388.026 191.351 388.226 190.596 385.705 185.581C383.685 181.563 382.629 181.328 377.308 183.71ZM219.731 183.359C219.694 183.605 219.56 193.075 219.434 204.403L219.203 225L231.907 224.594C242.452 224.256 245.182 223.759 247.966 221.668C252.315 218.403 256.673 209.557 256.673 203.997C256.673 197.738 252.103 189.22 247.187 186.314C244.049 184.46 240.249 183.755 231.425 183.391C225.031 183.126 219.768 183.112 219.731 183.359ZM425.342 203.996L425.693 224.799L430.695 224.796L435.696 224.791L435.966 203.993L436.235 183.195L430.613 183.194L424.99 183.191L425.342 203.996ZM500.044 184.793C497.527 186.686 497.866 191.559 500.638 193.345C501.682 194.018 503.956 194.202 505.693 193.753C508.164 193.115 508.851 192.197 508.851 189.535C508.851 183.731 504.542 181.411 500.044 184.793ZM297.117 191.617C297.117 195.062 296.581 197.879 295.927 197.879C295.273 197.879 294.738 199.806 294.738 202.162C294.738 204.517 295.273 206.444 295.927 206.444C296.586 206.444 297.117 209.685 297.117 213.717C297.117 219.845 297.533 221.29 299.761 222.894C302.895 225.154 307.733 225.346 311.93 223.379C314.141 222.343 314.959 221.021 314.959 218.484C314.959 215.444 314.516 215.01 311.414 215.01C308.646 215.01 307.708 214.354 307.138 212.021C306.146 207.952 307.314 206.444 311.461 206.444C314.741 206.444 314.959 206.142 314.959 201.627C314.959 197.087 314.737 196.789 311.094 196.426C307.412 196.062 307.244 195.824 307.576 191.455C307.885 187.386 307.617 186.863 305.197 186.849C303.697 186.84 301.266 186.5 299.793 186.095C297.272 185.4 297.117 185.722 297.117 191.617ZM476.734 191.617C476.734 196.368 476.304 197.879 474.95 197.879C473.703 197.879 473.166 199.171 473.166 202.162C473.166 205.152 473.703 206.444 474.95 206.444C476.336 206.444 476.734 208.066 476.734 213.7C476.734 222.216 478.54 224.799 484.495 224.799C490.881 224.799 494.577 222.512 494.577 218.562C494.577 215.624 494.055 215.113 490.711 214.781C487.311 214.445 486.8 213.919 486.473 210.421C486.125 206.716 486.349 206.444 489.744 206.444C493.202 206.444 493.387 206.195 493.387 201.55C493.387 196.927 493.189 196.655 489.819 196.655C486.449 196.655 486.25 196.384 486.25 191.761C486.25 187.921 485.802 186.862 484.169 186.849C483.024 186.84 480.883 186.5 479.411 186.095C476.89 185.4 476.734 185.722 476.734 191.617ZM240.854 193.6C244.684 196.359 246.465 203.021 244.779 208.276C243.097 213.518 239.557 216.234 234.402 216.234H230.504V203.997V191.761H234.402C236.546 191.761 239.45 192.588 240.854 193.6ZM267.973 196.588C262.863 198.74 260.836 202.646 260.836 210.344C260.836 217.058 261.155 217.95 264.721 221.229C269.034 225.193 273.746 225.83 277.699 222.981C279.93 221.373 280.3 221.373 280.9 222.981C281.334 224.146 283.195 224.799 286.077 224.799H290.574V210.758V196.715L287.093 195.928C284.665 195.38 283.212 195.702 282.295 196.994C281.16 198.59 280.666 198.609 278.709 197.139C276.218 195.264 271.672 195.031 267.973 196.588ZM323.739 197.769C314.595 203.504 315.767 219.358 325.646 223.567C328.809 224.916 330.225 224.922 333.761 223.606C336.897 222.44 338.166 222.386 338.496 223.407C338.745 224.173 340.998 224.799 343.503 224.799H348.058L347.992 210.786L347.927 196.773L344.318 195.958C341.757 195.379 340.326 195.68 339.392 196.994C338.257 198.59 337.763 198.609 335.806 197.139C332.665 194.776 328.132 195.012 323.739 197.769ZM398.599 197.818C393.745 200.863 392.278 203.776 392.278 210.375C392.278 216.452 394.487 220.342 399.428 222.971C406.014 226.474 414.892 224.404 418.97 218.415C419.993 216.914 420.827 213.186 420.827 210.115C420.827 203.792 418.673 199.917 413.677 197.26C408.973 194.757 403.134 194.974 398.599 197.818ZM519.93 197.818C515.076 200.863 513.609 203.776 513.609 210.375C513.609 216.452 515.818 220.342 520.76 222.971C527.345 226.474 536.223 224.404 540.301 218.415C541.324 216.914 542.158 213.186 542.158 210.115C542.158 203.792 540.004 199.917 535.008 197.26C530.304 194.757 524.465 194.974 519.93 197.818ZM548.857 196.322C545.649 196.814 545.488 197.114 546.168 201.339C546.565 203.811 546.896 210.101 546.903 215.316L546.916 224.799H551.622H556.327L556.677 216.056C557.043 206.889 558.743 203.993 562.813 205.599C564.376 206.217 564.759 208.18 564.759 215.584V224.799H569.517H574.275V212.021C574.275 200.203 574.076 199.098 571.631 197.337C568.289 194.929 564.421 194.915 559.941 197.299C556.796 198.972 556.432 198.972 556.432 197.299C556.432 195.444 555.426 195.314 548.857 196.322ZM585.603 197.347C583.654 198.392 581.656 199.902 581.16 200.704C579.48 203.421 580.212 208.503 582.602 210.727C585.816 213.719 585.596 216.028 582.007 216.954C578.458 217.871 578.331 218.742 581.211 222.401C583.746 225.62 587.429 225.186 592.52 221.066C596.367 217.953 596.725 212.685 593.307 209.504C589.848 206.283 590.193 202.773 593.97 202.773H597.01L594.902 199.102C592.523 194.959 590.696 194.614 585.603 197.347ZM441.842 197.471C441.405 197.919 441.049 202.901 441.049 208.539C441.049 217.794 441.333 219.085 443.969 221.795C447.289 225.212 452.479 225.733 455.988 223.003C458.959 220.69 460.081 220.68 460.081 222.964C460.081 224.323 461.469 224.799 465.434 224.799H470.787V210.727V196.655H465.434H460.081V205.198C460.081 213.236 459.91 213.784 457.175 214.49C452.594 215.672 451.754 214.224 451.754 205.149V196.655H447.195C444.686 196.655 442.277 197.022 441.842 197.471ZM498.146 210.727V224.799H503.498H508.851V210.727V196.655H503.498H498.146V210.727ZM278.582 205.964C280.799 206.838 281.075 211.444 279.036 213.542C275.938 216.728 269.758 214.446 269.758 210.115C269.758 206.115 273.958 204.138 278.582 205.964ZM337.56 207.668C340.453 213.228 333.19 217.681 328.723 213.088C326.512 210.812 326.493 210.649 328.086 207.587C329.771 204.347 335.859 204.398 337.56 207.668ZM410.073 206.998C413.234 210.914 408.593 216.931 404.471 214.261C400.353 211.592 401.819 205.221 406.553 205.221C407.7 205.221 409.285 206.02 410.073 206.998ZM531.405 206.998C534.565 210.914 529.924 216.931 525.802 214.261C521.684 211.592 523.15 205.221 527.884 205.221C529.031 205.221 530.616 206.02 531.405 206.998Z" fill="black"/>
</svg>
